<svg xmlns="http://www.w3.org/2000/svg" width="44" height="44" viewBox="0 0 44 44">
  <g id="shopping-basket" transform="translate(8.139 10.891)">
    <rect id="Tap_Area" data-name="Tap Area" width="44" height="44" rx="4" transform="translate(-8.139 -10.891)" fill="none"/>
    <g id="Basket">
      <path id="Path_303" data-name="Path 303" d="M246.527,201.043a.527.527,0,1,0-.527-.527A.528.528,0,0,0,246.527,201.043Zm0,0" transform="translate(-233.027 -189.442)"/>
      <path id="Path_304" data-name="Path 304" d="M24.891,7.383H21.772l-4.8-6.6a1.582,1.582,0,0,0-2.748,1.568.537.537,0,0,0,.041.062l3.763,4.97H8.97l3.763-4.97a.565.565,0,0,0,.041-.062A1.582,1.582,0,0,0,10.025.782l-4.8,6.6H2.109a2.11,2.11,0,0,0-.675,4.108.525.525,0,0,0,.323.111.51.51,0,0,1,.071,0,.526.526,0,0,1,.448.428L4.07,21.9a1.582,1.582,0,0,0,1.557,1.3H21.374a1.582,1.582,0,0,0,1.557-1.3l1.794-9.87a.526.526,0,0,1,.449-.428.49.49,0,0,1,.07,0,.524.524,0,0,0,.324-.112,2.109,2.109,0,0,0-.677-4.107ZM15.134,1.811a.527.527,0,0,1,.936-.486.5.5,0,0,0,.035.054l4.364,6H19.352ZM10.9,1.379a.566.566,0,0,0,.034-.054.527.527,0,0,1,.936.485L7.648,7.383H6.532Zm14,9.167H15.609a.525.525,0,1,0,0,1.049h8.142a1.6,1.6,0,0,0-.065.244l-1.794,9.875a.527.527,0,0,1-.519.433H5.626a.527.527,0,0,1-.519-.433l-1.794-9.87a1.592,1.592,0,0,0-.065-.244h8.142a.527.527,0,1,0,0-1.055H2.109a1.055,1.055,0,1,1,0-2.109H24.891a1.055,1.055,0,1,1,0,2.109Zm0,0" transform="translate(0 -0.001)"/>
      <path id="Path_305" data-name="Path 305" d="M227.582,249.988A1.584,1.584,0,0,0,226,251.57v4.219a1.582,1.582,0,1,0,3.164,0V251.57A1.582,1.582,0,0,0,227.582,249.988Zm.527,5.8a.527.527,0,1,1-1.055,0V251.57a.527.527,0,0,1,1.055,0Zm0,0" transform="translate(-214.082 -236.805)"/>
      <path id="Path_306" data-name="Path 306" d="M327.582,257.371a1.584,1.584,0,0,0,1.582-1.582V251.57a1.582,1.582,0,0,0-3.164,0v4.219A1.584,1.584,0,0,0,327.582,257.371Zm-.527-5.8a.527.527,0,0,1,1.055,0v4.219a.527.527,0,1,1-1.055,0Zm0,0" transform="translate(-308.809 -236.805)"/>
      <path id="Path_307" data-name="Path 307" d="M127.582,249.988A1.584,1.584,0,0,0,126,251.57v4.219a1.582,1.582,0,1,0,3.164,0V251.57A1.582,1.582,0,0,0,127.582,249.988Zm.527,5.8a.527.527,0,1,1-1.055,0V251.57a.527.527,0,0,1,1.055,0Zm0,0" transform="translate(-119.355 -236.805)"/>
    </g>
  </g>
</svg>
